<svg width="100" height="100" viewBox="0 0 100 100" fill="none" xmlns="http://www.w3.org/2000/svg">
  <!-- Background circle -->
  <circle cx="50" cy="50" r="45" fill="#584fbf" opacity="0.1"/>
  
  <!-- Shield base -->
  <path d="M50 15 L75 25 L75 45 C75 65 50 85 50 85 C50 85 25 65 25 45 L25 25 Z" fill="#584fbf"/>
  
  <!-- Shield highlight -->
  <path d="M50 15 L75 25 L75 45 C75 65 50 85 50 85 C50 85 25 65 25 45 L25 25 Z" fill="url(#shieldGradient)" opacity="0.3"/>
  
  <!-- Heart symbol -->
  <path d="M50 35 C45 30 40 35 40 40 C40 45 50 50 50 50 C50 50 60 45 60 40 C60 35 55 30 50 35 Z" fill="#ffffff"/>
  
  <!-- Eye symbol -->
  <circle cx="45" cy="42" r="2" fill="#584fbf"/>
  <circle cx="55" cy="42" r="2" fill="#584fbf"/>
  
  <!-- Chart lines -->
  <path d="M30 70 L40 65 L50 68 L60 62 L70 65" stroke="#ffffff" stroke-width="2" fill="none" opacity="0.8"/>
  
  <!-- Gradient definition -->
  <defs>
    <linearGradient id="shieldGradient" x1="0%" y1="0%" x2="100%" y2="100%">
      <stop offset="0%" style="stop-color:#8787eb;stop-opacity:1" />
      <stop offset="100%" style="stop-color:#584fbf;stop-opacity:1" />
    </linearGradient>
  </defs>
</svg>
